<svg width="88" height="109" viewBox="0 0 88 109" fill="none" xmlns="http://www.w3.org/2000/svg">
<g filter="url(#filter0_d_346_190)">
<path d="M73.1066 57.4865C73.3027 51.732 70.6561 46.2751 66.0489 42.9017C61.4418 39.4292 55.4624 38.5362 50.0711 40.4213C48.9928 40.8182 48.4047 41.2151 48.2086 41.8104C48.1106 42.2072 48.1106 42.6041 48.3066 43.001C48.9928 44.39 50.0711 43.9931 50.8553 43.6955L51.1493 43.5963C56.6386 41.9096 61.4418 42.9017 65.4608 46.7712C68.3035 49.45 69.8719 53.0218 69.8719 56.8912C69.8719 60.8598 68.3035 64.6301 65.3628 67.5073C63.4023 69.4916 62.128 71.476 61.6379 73.6587C61.3438 75.0477 61.3438 76.4368 61.3438 77.8258C61.3438 78.4211 61.3438 79.0164 61.3438 79.7109C61.1477 85.1678 59.5794 90.1286 56.5406 94.4941C55.6584 95.7839 54.7762 96.6768 53.894 97.2721C53.5999 97.4706 53.4039 97.5698 53.3058 97.4706C53.2078 97.4706 53.1098 97.2721 53.0118 96.9745C52.6197 95.9823 52.4236 94.9902 52.1296 93.6011C51.3454 88.2435 51.2473 82.6874 51.2473 77.5281C51.2473 75.5438 50.4632 73.6587 49.0908 72.2697C47.7185 70.8807 45.856 70.0869 43.8956 70.1862C39.8766 70.1862 36.7398 73.5595 36.7398 77.7266V79.6117C36.7398 82.8858 36.8378 86.2592 36.5438 89.6325V90.0294C36.3477 92.3113 36.1517 94.6925 35.2695 96.8753C35.1714 97.2721 34.9754 97.4706 34.7794 97.4706C34.5833 97.4706 34.3873 97.3713 34.0932 97.1729C33.211 96.4784 32.3288 95.5855 31.4465 94.3949C28.0157 89.4341 26.3493 83.7788 26.6434 77.5281C26.8394 73.5595 25.4671 70.1862 22.4284 67.2097C18.8015 63.6379 17.4291 59.074 18.5074 54.0139C19.3896 49.8469 21.8402 46.4735 25.3691 44.4892C28.8979 42.5049 33.1129 42.108 37.1319 43.497C37.9161 43.7947 39.1904 44.1915 39.7786 42.8025C39.9746 42.4057 39.9746 42.0088 39.8766 41.7111C39.6805 41.2151 39.0924 40.8182 38.2102 40.4213C35.4655 39.4292 32.4268 39.1315 29.192 39.7268C24.879 40.4213 20.86 43.001 18.2133 46.9696C15.4687 50.839 14.3904 55.6014 15.2726 59.9669C16.0568 64.0348 17.8212 67.4081 20.762 70.1862C22.6244 71.972 23.5066 74.0556 23.5066 76.6352C23.5066 78.4211 23.5066 80.4054 23.7027 82.2905C24.3888 88.3427 26.4473 93.4027 29.8782 97.5698C30.9564 98.9588 32.1327 99.8518 33.407 100.447C33.9952 100.745 34.5833 100.844 35.0734 100.844C36.1517 100.844 37.1319 100.249 37.9161 99.058C38.5043 98.0659 38.8964 96.8753 39.0924 95.8831C39.9746 92.1129 40.0726 88.1443 40.1707 84.3741V83.5803C40.1707 82.985 40.1707 82.4889 40.1707 81.8937C40.1707 80.7031 40.1707 79.4132 40.1707 78.1234C40.0726 75.5438 41.739 73.6587 43.9936 73.5595C45.1699 73.5595 46.2481 73.8571 47.0323 74.6509C47.8165 75.4446 48.3066 76.6352 48.3066 77.925C48.3066 81.4968 48.3066 85.7631 48.6987 90.0294C48.8948 92.5098 49.2869 95.4862 50.3651 98.1651C50.9533 99.6533 51.7375 100.546 52.8157 100.844C53.796 101.142 54.9723 100.844 56.2466 99.951C58.109 98.6612 59.3833 96.8753 60.2655 95.387C63.5983 90.1286 65.1667 83.9772 64.9707 77.2305C64.8727 74.3532 65.8529 72.0713 68.0094 69.9877C71.1462 66.5152 73.0086 62.3481 73.1066 57.4865Z" fill="#52525B"/>
<path d="M19.7819 36.9488C25.6633 36.9488 31.5447 36.9488 37.3281 36.9488C39.5827 36.9488 41.8372 36.9488 44.0918 36.9488H50.8554C56.7369 36.9488 62.6183 36.9488 68.5977 36.9488C71.1463 36.9488 73.0088 36.0559 74.4791 34.0715C78.3021 29.0115 79.7724 23.4554 78.6942 17.5025C77.2238 9.56518 72.6167 3.90987 65.1669 1.33025C57.7171 -1.34858 50.7574 0.0404438 44.5819 5.29889C44.0918 5.69576 43.9938 5.69576 43.5036 5.29889C38.5044 0.933388 32.721 -0.654069 26.3495 0.437308C19.1938 1.72712 13.3123 6.48949 10.6657 13.3354C8.01904 20.1813 8.99928 27.8209 13.4104 33.6747C15.0768 35.8574 17.0372 36.9488 19.7819 36.9488ZM47.3266 19.0899V19.4868C47.4246 19.9829 47.4246 20.479 47.4246 20.975C47.4246 22.0664 48.1108 22.6617 48.993 22.6617C49.4831 22.6617 49.8752 22.5625 50.1693 22.2648C50.4633 21.9672 50.6594 21.4711 50.6594 20.7766C50.6594 17.8001 49.9732 15.0221 48.7969 12.3432C48.3068 11.2519 47.6206 9.96205 46.7384 8.77146C46.3463 8.37459 46.3463 8.17616 46.9345 7.7793C53.7961 1.52868 64.8728 2.02476 71.1463 9.0691C77.0278 15.6174 77.4199 24.9437 72.2246 31.988C71.2444 33.2778 70.0681 33.8731 68.4997 33.8731C62.5203 33.8731 56.5408 33.8731 50.5614 33.8731H44.0918H37.7202C31.8388 33.8731 25.9574 33.8731 20.076 33.8731C18.3115 33.8731 17.1353 33.2778 16.057 31.8888C12.4301 26.928 11.5479 20.479 13.7044 14.7244C15.959 8.96989 20.8602 4.90203 26.8396 3.71144C27.8198 3.51301 28.8981 3.41379 29.8783 3.41379C33.6032 3.41379 37.3281 4.60438 40.3669 6.98557C44.2878 9.86283 46.8365 14.3276 47.3266 19.0899Z" fill="#52525B"/>
<path d="M83.1052 97.8675C78.5961 93.7004 73.0087 91.8153 66.5392 92.1129C64.6767 92.2121 63.2063 93.1051 62.2261 94.891C61.4419 96.28 60.7558 97.5698 59.8735 98.7604C58.6973 100.348 57.2269 102.035 55.1684 103.126C52.9139 104.217 50.8554 103.622 49.483 101.34C48.9929 100.447 48.6988 99.3557 48.4048 98.3635L48.3067 97.8675C47.7186 95.7839 46.1502 94.4941 44.0917 94.4941C42.1312 94.4941 40.5629 95.7839 39.8767 97.8675L39.7787 98.2643C39.3866 99.4549 39.0925 100.646 38.5044 101.638C37.3281 103.523 35.5636 104.118 33.4071 103.324C32.721 103.027 32.1328 102.729 31.4466 102.233C29.3882 100.646 27.6237 98.3635 26.0553 95.2878C24.9771 93.2043 23.2127 92.1129 20.9581 92.1129C20.566 92.1129 20.2719 92.1129 19.8798 92.1129H19.3897C13.8024 92.3114 8.90119 94.2957 4.88221 97.9667C4.49012 98.3635 4 98.8596 4 99.5541C4 99.951 4.19605 100.348 4.49012 100.646C5.56838 101.836 6.74466 100.745 7.13676 100.348C10.9597 96.8753 15.4688 95.1886 21.1542 95.3871C22.0364 95.3871 22.6245 95.7839 23.0166 96.5777C23.8008 98.0659 24.683 99.5541 25.5652 100.844C27.5257 103.523 29.3882 105.11 31.5447 106.202C32.721 106.698 33.8972 106.995 34.9755 106.995C37.4261 106.995 39.6806 105.706 41.151 103.225C41.8372 102.035 42.4253 100.646 42.8174 98.9588C43.0135 97.9667 43.5036 97.8675 43.9937 97.8675C44.3858 97.8675 44.8759 97.9667 45.072 98.9588C45.4641 100.646 45.9542 102.035 46.7384 103.225C48.5028 106.102 51.0514 107.392 54.2862 106.896C55.7565 106.698 57.0309 106.102 58.5992 104.912C61.0498 103.027 63.0103 100.447 64.8727 96.8753C65.3629 95.8831 65.951 95.4863 66.8332 95.3871C72.4206 95.1886 77.0277 96.7761 80.8506 100.348C81.2427 100.745 82.419 101.836 83.4973 100.646C83.7913 100.249 83.9874 99.951 83.9874 99.5541C84.0854 98.8596 83.5953 98.2643 83.1052 97.8675Z" fill="#52525B"/>
<path d="M42.4253 62.3483C42.1312 61.9514 41.7391 61.5546 41.445 61.1577C41.0529 60.7609 40.6608 60.5624 40.1707 60.5624C39.7786 60.5624 39.3865 60.7609 38.9944 61.0585C38.3083 61.753 38.3083 62.646 39.0925 63.4397L42.8174 67.2099C43.2095 67.6068 43.6016 67.8052 43.9937 67.8052C44.3857 67.8052 44.7778 67.6068 45.1699 67.3091C46.4442 66.1185 47.7186 64.7295 49.0909 63.3405C49.483 62.9436 49.581 62.5467 49.581 62.1499C49.581 61.753 49.385 61.3561 48.9929 61.0585C48.3067 60.364 47.4245 60.4632 46.7383 61.1577C46.3462 61.5546 46.0521 61.9514 45.6601 62.3483L45.562 62.4475C45.562 62.3483 45.562 62.1499 45.562 62.0507C45.562 61.9514 45.562 61.8522 45.562 61.753C45.562 60.0663 45.562 58.3797 45.562 56.693V54.7087C45.562 54.5102 45.562 54.2126 45.562 54.0142C45.562 53.4189 45.366 52.9228 45.0719 52.6251C44.7778 52.3275 44.3857 52.2283 43.8956 52.2283C42.9154 52.2283 42.3272 52.9228 42.3272 54.1134C42.3272 56.2961 42.3272 58.3797 42.3272 60.5624V62.5467L42.4253 62.3483Z" fill="#52525B"/>
<path d="M63.7945 62.2489C63.9905 62.6457 64.2846 62.9434 64.6767 63.1418C64.9707 63.241 65.1668 63.3402 65.3628 63.3402C66.049 63.3402 66.5391 62.8442 66.9312 61.9512C67.6174 60.3638 67.9115 58.7763 67.9115 57.2881C67.9115 51.4343 64.0885 46.4735 58.6972 45.1837C58.2071 45.0845 56.7368 44.6876 56.3447 46.1759C56.1486 46.8704 56.2466 47.2672 56.4427 47.5649C56.7367 47.9618 57.1288 48.2594 57.815 48.3586C60.2656 48.8547 62.4221 50.5414 63.6964 52.9226C64.9707 55.403 65.0688 58.181 63.9905 60.7606C63.6964 61.2567 63.5984 61.7528 63.7945 62.2489Z" fill="#52525B"/>
<path d="M43.9937 50.5413H44.0917C44.5818 50.5413 44.8759 50.4421 45.17 50.1445C45.464 49.8468 45.6601 49.45 45.6601 48.8547C45.6601 48.2594 45.6601 47.6641 45.5621 46.9696C45.464 46.0766 44.8759 45.5805 43.8956 45.6798C43.0134 45.6798 42.4253 46.2751 42.4253 47.168C42.4253 47.3664 42.4253 47.5649 42.4253 47.7633V48.8547C42.5233 49.8468 43.0134 50.4421 43.9937 50.5413Z" fill="#52525B"/>
<path d="M43.9934 43.8941C43.9934 43.8941 44.0914 43.8941 43.9934 43.8941C44.4835 43.8941 44.8756 43.7948 45.1697 43.4972C45.4638 43.1995 45.6598 42.7035 45.6598 42.2074C45.6598 41.7113 45.6598 41.116 45.6598 40.6199C45.5618 39.6278 44.9737 39.0325 43.9934 39.0325C43.1112 39.0325 42.5231 39.6278 42.5231 40.6199C42.5231 40.8184 42.5231 40.9176 42.5231 41.116V41.7113C42.5231 41.9097 42.5231 42.009 42.5231 42.2074C42.425 43.1995 43.0132 43.8941 43.9934 43.8941Z" fill="#52525B"/>
<path d="M60.6577 10.0613C63.9905 10.9542 66.6371 13.0377 68.1075 15.8158C69.5779 18.6931 69.6759 22.0664 68.3035 25.4397C68.1075 25.9358 67.6174 27.3249 69.0877 27.9201C69.3818 28.0194 69.5779 28.1186 69.7739 28.1186C69.97 28.1186 70.068 28.1186 70.264 28.0194C70.8522 27.8209 71.1462 27.2256 71.3423 26.7296C72.1265 24.8444 72.5186 22.9593 72.5186 20.8758C72.5186 14.1291 67.7154 8.07694 61.3439 6.78713C60.8537 6.68791 59.3834 6.39026 58.9913 7.87851C58.7952 9.56518 60.2656 9.96204 60.6577 10.0613Z" fill="#52525B"/>
</g>
<defs>
<filter id="filter0_d_346_190" x="0" y="0" width="88" height="115" filterUnits="userSpaceOnUse" color-interpolation-filters="sRGB">
<feFlood flood-opacity="0" result="BackgroundImageFix"/>
<feColorMatrix in="SourceAlpha" type="matrix" values="0 0 0 0 0 0 0 0 0 0 0 0 0 0 0 0 0 0 127 0" result="hardAlpha"/>
<feOffset dy="4"/>
<feGaussianBlur stdDeviation="2"/>
<feComposite in2="hardAlpha" operator="out"/>
<feColorMatrix type="matrix" values="0 0 0 0 0 0 0 0 0 0 0 0 0 0 0 0 0 0 0.25 0"/>
<feBlend mode="normal" in2="BackgroundImageFix" result="effect1_dropShadow_346_190"/>
<feBlend mode="normal" in="SourceGraphic" in2="effect1_dropShadow_346_190" result="shape"/>
</filter>
</defs>
</svg>
