<svg width="24" height="26" viewBox="0 0 24 26" fill="none" xmlns="http://www.w3.org/2000/svg">
<path d="M15.9999 9L10.6666 14.3333L7.99992 11.6667M22.6666 5.2666V10.5531C22.6666 19.3108 16.0425 23.2371 13.2343 24.5082C12.9366 24.643 12.7887 24.7104 12.4517 24.7683C12.2392 24.8048 11.7616 24.8048 11.5491 24.7683C11.2121 24.7104 11.0629 24.643 10.7652 24.5082C7.95698 23.2371 1.33325 19.3107 1.33325 10.5531V5.2666C1.33325 3.77313 1.33325 3.02649 1.6239 2.45605C1.87956 1.95429 2.28722 1.54631 2.78898 1.29065C3.35941 1 4.10671 1 5.60018 1H18.4002C19.8937 1 20.6399 1 21.2103 1.29065C21.7121 1.54631 22.1206 1.95429 22.3762 2.45605C22.6669 3.02649 22.6666 3.77313 22.6666 5.2666Z" stroke="#18181B" stroke-width="2" stroke-linecap="round" stroke-linejoin="round"/>
</svg>
